<svg xmlns="http://www.w3.org/2000/svg" width="32" height="32" viewBox="0 0 32 32">
  <rect width="32" height="32" rx="4" fill="#0d1117"/>
  <path d="M 11,8 C 11,10 19,18 21,18 C 19,18 11,26 11,28 C 11,26 3,18 1,18 C 3,18 11,10 11,8 Z" fill="none" stroke="#e8e8e8" stroke-width="1.5" stroke-linejoin="round"/>
  <path d="M 22,2 C 22,3 27,8 28,8 C 27,8 22,13 22,14 C 22,13 17,8 16,8 C 17,8 22,3 22,2 Z" fill="none" stroke="#e8e8e8" stroke-width="1.2" stroke-linejoin="round"/>
  <path d="M 26,21 C 26,22 29,25 30,25 C 29,25 26,28 26,29 C 26,28 23,25 22,25 C 23,25 26,22 26,21 Z" fill="none" stroke="#e8e8e8" stroke-width="1" stroke-linejoin="round"/>
</svg>
